<svg width="40" height="40" viewBox="0 0 40 40" fill="none" xmlns="http://www.w3.org/2000/svg">
<g id="game-icons:small-fire">
<path id="Vector" d="M12.6733 1.66501C-1.69198 9.99938 16.7354 19.4267 11.8772 27.6392C9.13661 32.2721 2.97724 25.4258 3.41786 17.7344C-0.471592 27.6075 2.36005 34.6676 7.43896 38.4961C7.54724 38.5227 8.81216 38.535 10.6566 38.54C8.43177 37.2197 8.15192 32.6529 13.2201 30.4736L14.4529 29.9267L14.2235 31.25C14.1175 31.9016 14.1986 32.3399 14.3163 32.5732C14.434 32.8066 14.559 32.8501 14.7729 32.8931C15.2006 32.979 16.0981 32.7059 16.826 31.7506C18.2819 29.8399 19.1008 25.4827 14.7265 18.7037L14.4066 18.2008L13.3202 16.6969L15.1366 17.4707L15.5468 17.6074C21.8632 19.5995 26.1171 22.1746 29.1893 26.4137C30.8725 24.6241 32.2128 21.9734 32.6122 19.2504L32.8856 17.1045L33.9354 18.9771C35.9296 22.5554 36.3 27.1734 34.8022 31.2037C33.6904 34.1943 31.5181 36.8552 28.2397 38.5084C29.304 38.5076 30.1186 38.5109 30.2123 38.5181C42.3029 35.8016 41.0986 19.3812 29.1037 7.72954C29.1047 7.78626 29.1037 7.8436 29.1037 7.90048C35.2728 22.4216 18.4424 22.6742 19.7873 8.79657C16.5306 16.6452 9.40763 8.62884 12.6733 1.66509L12.6733 1.66501ZM21.0228 25.957C22.0783 27.1919 22.7689 28.5419 22.8025 29.9267C22.8483 31.8041 22.0765 33.608 20.8861 35.127C19.7273 36.6056 18.1644 37.8316 16.4622 38.5376C19.0503 38.5325 21.5346 38.5251 23.9011 38.5181L23.8962 38.5035C26.3142 37.0516 27.5923 35.4699 28.0954 33.9869C28.5986 32.5039 28.3493 31.077 27.6389 29.7902C26.4326 27.605 23.7557 26.0628 21.0228 25.9572V25.957Z" fill="#FF5C00" fill-opacity="0.75"/>
</g>
</svg>
