<svg width="22" height="22" viewBox="0 0 22 22" fill="none" xmlns="http://www.w3.org/2000/svg">
<g id="game-icons:small-fire" clip-path="url(#clip0_112_2)">
<path id="Vector" d="M6.97044 0.915771C-0.930481 5.49968 9.20456 10.6847 6.53259 15.2016C5.02525 17.7497 1.63759 13.9842 1.87993 9.75393C-0.259266 15.1841 1.29814 19.0672 4.09154 21.1729C4.15109 21.1875 4.8468 21.1943 5.86125 21.197C4.63758 20.4708 4.48367 17.9591 7.27118 16.7605L7.94923 16.4597L7.82303 17.1875C7.76476 17.5459 7.80936 17.7869 7.87407 17.9153C7.93883 18.0436 8.00753 18.0676 8.12518 18.0912C8.36044 18.1385 8.85406 17.9883 9.2544 17.4628C10.0552 16.4119 10.5055 14.0155 8.09966 10.287L7.92375 10.0105L7.32622 9.1833L8.32525 9.60891L8.55083 9.6841C12.0249 10.7797 14.3645 12.1961 16.0543 14.5275C16.98 13.5433 17.7171 12.0854 17.9368 10.5877L18.0872 9.40747L18.6646 10.4374C19.7614 12.4055 19.9651 14.9454 19.1413 17.162C18.5299 18.8069 17.3351 20.2704 15.5319 21.1796C16.1173 21.1792 16.5653 21.181 16.6169 21.1849C23.2667 19.6909 22.6044 10.6597 16.0072 4.25126C16.0077 4.28246 16.0072 4.314 16.0072 4.34528C19.4001 12.3319 10.1434 12.4708 10.8831 4.83813C9.09194 9.1549 5.1743 4.74588 6.9704 0.915814L6.97044 0.915771ZM11.5626 14.2764C12.1431 14.9556 12.523 15.6981 12.5415 16.4597C12.5667 17.4923 12.1422 18.4844 11.4874 19.3198C10.8501 20.1331 9.99054 20.8074 9.05434 21.1957C10.4778 21.1929 11.8441 21.1888 13.1457 21.1849L13.143 21.177C14.4729 20.3784 15.1759 19.5085 15.4526 18.6928C15.7293 17.8772 15.5922 17.0924 15.2015 16.3846C14.5381 15.1828 13.0657 14.3346 11.5626 14.2765V14.2764Z" fill="white"/>
</g>
<defs>
<clipPath id="clip0_112_2">
<rect width="22" height="22" fill="white"/>
</clipPath>
</defs>
</svg>
